<svg xmlns="http://www.w3.org/2000/svg" version="1.1" xmlns:xlink="http://www.w3.org/1999/xlink" xmlns:svgjs="http://svgjs.dev/svgjs" width="100%" height="100%" viewBox="0 0 1000 600"><rect width="1000" height="600" x="0" y="0" fill="#d2302c"/><g><rect width="333.3333333333333" height="333.3333333333333" y="286.4559053997996" fill="#f7f7f9" transform="matrix(0.47306617274475476,0,0,0.47306617274475476,0,85.64305008137211)" x="264.23364257812494"/><path d="M505.03475045771734 528.1225696727923L356.7658682852909 528.1225696727923L356.7658682852909 509.74840463503773L484.8990952179962 509.74840463503773L484.8990952179962 479.80307120160626L505.03475045771734 479.80307120160626L505.03475045771734 528.1225696727923ZM407.27204424857337 517.8573336682286L384.7674883924144 517.8573336682286L384.7674883924144 389.4811425697348L407.27204424857337 389.4811425697348L407.27204424857337 517.8573336682286ZM451.2485582562902 461.4289061638516L394.6075371068483 461.4289061638516L394.6075371068483 444.6036376829986L451.2485582562902 444.6036376829986L451.2485582562902 461.4289061638516ZM459.1145231236926 481.7771550486377L441.6211031869213 481.7771550486377L441.6211031869213 424.4679824432775L459.1145231236926 424.4679824432775L459.1145231236926 481.7771550486377ZM505.03475045771734 426.44206629030896L484.8990952179962 426.44206629030896L484.8990952179962 396.49673285687743L356.7658682852909 396.49673285687743L356.7658682852909 378.1225678191229L505.03475045771734 378.1225678191229L505.03475045771734 426.44206629030896Z " fill="#d2302c" transform="matrix(0.47306617274475476,0,0,0.47306617274475476,0,85.64305008137211)"/><path d="M755.3758330975049 527.7146427709238L755.3758330975049 527.7146427709238Q739.8455310799096 527.7146427709238 726.3257184417029 522.3533377592212Q712.805905803496 516.9920327475184 702.6077712703658 506.93958585057584Q692.4387742644732 496.85800142639573 686.6695438714454 483.2216386792389Q680.9003134784174 469.585275932082 680.9003134784174 453.2391231518363L680.9003134784174 453.2391231518363Q680.9003134784174 436.2228072451277 686.5821312897327 422.38248180730824Q692.2348115738106 408.54215636948874 702.0832957800906 398.6936721632088Q711.960917513608 388.81605042969136 724.6357418619269 383.4838829452261Q737.3397037374833 378.1225779335234 751.1800291753028 378.1225779335234L751.1800291753028 378.1225779335234Q765.6613802123476 378.1225779335234 776.6753655081283 383.0468200366634Q787.6893508039087 387.9710621398034 795.352520467375 396.2752574024951Q803.0156901308416 404.55031513794927 807.4154567437062 415.03982494345456L807.4154567437062 415.03982494345456L797.5378350101888 411.89297200180295L797.5378350101888 381.0654681845124L817.2639409499862 381.0654681845124L817.2639409499862 427.83119940072345L803.4236155121667 429.11325059917414Q799.0238488993019 419.2356288656566 792.4096302163861 411.68900931114035Q785.7954115334702 404.142389756624 776.4714028174657 399.94658583442197Q767.1182565742234 395.7507819122198 754.3268821169544 395.7507819122198L754.3268821169544 395.7507819122198Q744.2744352200119 395.7507819122198 735.1252516674323 399.6260730348092Q726.0052056420901 403.5013641573987 718.866511468899 410.9605711302025Q711.7569548229454 418.3906405757687 707.6485634824559 428.99670049022404Q703.5693096692038 439.60276040467943 703.5693096692038 453.00602293393615L703.5693096692038 453.00602293393615Q703.5693096692038 465.3894720098799 707.5611509007434 475.79156923367265Q711.5238546050454 486.1645289302279 718.5751361965239 493.8276985936942Q725.5972802607649 501.4908682571606 735.0378390857196 505.57012207041265Q744.4783979106745 509.6493758836647 755.3758330975049 509.6493758836647L755.3758330975049 509.6493758836647Q764.6124292317971 509.6493758836647 772.0716362046008 507.5514739225637Q779.5017056501671 505.4535719614626 785.4748987338577 501.6948309478232Q791.4772293447855 497.9069524069463 796.2849213389756 492.9827103038063Q801.121750860403 488.0584682006663 804.8804918740424 482.37665038935097L804.8804918740424 482.37665038935097L818.953917529762 494.1482113933069Q814.321050698997 501.05380534859785 808.1438949246441 507.1435485412385Q801.9667391502909 513.233291733879 794.099606796162 517.9535711463564Q786.2324744420331 522.6738505588338 776.5588153991781 525.17967790126Q766.9142938835608 527.7146427709238 755.3758330975049 527.7146427709238ZM890.282584207198 527.9186054615864L890.282584207198 527.9186054615864Q879.35601149313 527.9186054615864 869.6240773958001 524.2472770296596Q859.8630057712327 520.5759485977327 852.1998361077664 513.7577672241543Q844.5366664442998 506.93958585057584 840.1368998314352 497.382476916671Q835.7371332185704 487.8545055100037 835.7371332185704 475.8789818153852L835.7371332185704 475.8789818153852Q835.7371332185704 463.93259564800417 840.1368998314352 454.2880741323868Q844.5366664442998 444.6144150895319 852.1998361077664 437.79623371595346Q859.8630057712327 430.97805234237507 869.6240773958001 427.3067239104482Q879.35601149313 423.63539547852133 890.282584207198 423.63539547852133L890.282584207198 423.63539547852133Q900.7720940127032 423.63539547852133 910.6205782189833 427.3067239104482Q920.4981999525006 430.97805234237507 928.1322320887294 437.79623371595346Q935.795401752196 444.6144150895319 940.1951683650606 454.2880741323868Q944.6240725051629 463.93259564800417 944.6240725051629 475.8789818153852L944.6240725051629 475.8789818153852Q944.6240725051629 487.8545055100037 940.3117184740107 497.382476916671Q935.9993644428586 506.93958585057584 928.4527448883422 513.7577672241543Q920.9061253338258 520.5759485977327 911.0576411275459 524.2472770296596Q901.1800193940284 527.9186054615864 890.282584207198 527.9186054615864ZM890.282584207198 511.5433151541032L890.282584207198 511.5433151541032Q899.7231430321527 511.5433151541032 907.0657998960065 507.1435485412385Q914.4084567598601 502.7437819283737 918.8082233727249 494.76009946529473Q923.2079899855895 486.8055545294532 923.2079899855895 475.8789818153852L923.2079899855895 475.8789818153852Q923.2079899855895 464.9815466285547 918.8082233727249 456.9978641654757Q914.4084567598601 449.04331922963416 907.0657998960065 444.6144150895319Q899.7231430321527 440.2146484766672 890.282584207198 440.2146484766672L890.282584207198 440.2146484766672Q880.8420253822432 440.2146484766672 873.2954058277268 444.6144150895319Q865.7196487459731 449.04331922963416 861.4364322420585 456.9978641654757Q857.1240782109063 464.9815466285547 857.1240782109063 475.8789818153852L857.1240782109063 475.8789818153852Q857.1240782109063 486.8055545294532 861.4364322420585 494.76009946529473Q865.7196487459731 502.7437819283737 873.2954058277268 507.1435485412385Q880.8420253822432 511.5433151541032 890.282584207198 511.5433151541032ZM996.4305959334639 442.749613346331L959.3093862328702 442.749613346331L959.3093862328702 426.17036034818517L996.4305959334639 426.17036034818517L996.4305959334639 442.749613346331ZM1002.3163764354421 520.3719859070701L981.541319515094 520.3719859070701L981.541319515094 426.17036034818517L1002.3163764354421 426.17036034818517L1002.3163764354421 520.3719859070701ZM1020.3525057954636 524.9757152105974L959.3093862328702 524.9757152105974L959.3093862328702 508.3964622124516L1020.3525057954636 508.3964622124516L1020.3525057954636 524.9757152105974ZM1077.84084703508 520.3719859070701L1057.2697528053945 520.3719859070701L1057.2697528053945 466.2344602997678Q1057.2697528053945 459.09576612657673 1055.0553007353437 453.96756133277415Q1052.8699861925297 448.81021901173403 1048.5576321613776 445.89646628798255Q1044.2744156574631 442.9535760369936 1037.7476095562597 442.9535760369936L1037.7476095562597 442.9535760369936Q1030.6380529103062 442.9535760369936 1023.0622958285525 446.82886715958307Q1015.5156762740361 450.7041582821725 1008.3769821008449 458.04681514602623Q1001.2674254548914 465.3894720098799 994.3326939723628 475.47105643406L994.3326939723628 475.47105643406L994.3326939723628 458.6878407452515Q1001.0343252369913 447.99436824908366 1009.0180077000704 440.12723589495465Q1017.0016901631494 432.2601035408257 1026.1217361884915 427.94774950967354Q1035.2417822138336 423.63539547852133 1044.886303729451 423.63539547852133L1044.886303729451 423.63539547852133Q1052.6660235018671 423.63539547852133 1058.6392165855577 426.25777292989767Q1064.6124096692483 428.880150381274 1069.0121762821132 434.2414553929767Q1073.411942894978 439.60276040467943 1075.6263949650288 447.3533426498583Q1077.84084703508 455.1039248950372 1077.84084703508 465.5934347005425L1077.84084703508 465.5934347005425L1077.84084703508 520.3719859070701ZM1095.8769763951018 524.9757152105974L1039.2336234453728 524.9757152105974L1039.2336234453728 508.3964622124516L1095.8769763951018 508.3964622124516L1095.8769763951018 524.9757152105974ZM1152.928254726155 520.3719859070701L1132.3862980237077 520.3719859070701L1132.3862980237077 466.2344602997678Q1132.3862980237077 460.9897053970152 1131.220796934207 456.67735136586305Q1130.055295844706 452.3941348619484 1127.6660186112304 449.3346945020093Q1125.2476038505165 446.3043916693078 1121.5762754185894 444.6144150895319Q1117.9049469866627 442.9535760369936 1113.0681174652354 442.9535760369936L1113.0681174652354 442.9535760369936Q1105.9294232920442 442.9535760369936 1098.3828037375279 446.82886715958307Q1090.8361841830115 450.7041582821725 1083.6974900098203 458.04681514602623Q1076.5587958366295 465.3894720098799 1069.8571645720008 475.47105643406L1069.8571645720008 475.47105643406L1069.8571645720008 458.6878407452515Q1076.5587958366295 447.99436824908366 1084.4259281907584 440.12723589495465Q1092.2930605448873 432.2601035408257 1101.3256939885168 427.94774950967354Q1110.3583274321463 423.63539547852133 1120.2068116384262 423.63539547852133L1120.2068116384262 423.63539547852133Q1127.7534311929426 423.63539547852133 1133.843174385583 426.25777292989767Q1139.9329175782236 428.880150381274 1144.2161340821385 434.2414553929767Q1148.5284881132907 439.60276040467943 1150.7429401833415 447.3533426498583Q1152.928254726155 455.1039248950372 1152.928254726155 465.5934347005425L1152.928254726155 465.5934347005425L1152.928254726155 520.3719859070701ZM1172.4503979752903 524.9757152105974L1114.5541313543486 524.9757152105974L1114.5541313543486 508.3964622124516L1172.4503979752903 508.3964622124516L1172.4503979752903 524.9757152105974ZM1218.1671782109506 442.749613346331L1181.045968510357 442.749613346331L1181.045968510357 426.17036034818517L1218.1671782109506 426.17036034818517L1218.1671782109506 442.749613346331ZM1224.0529587129286 520.3719859070701L1203.2779017925805 520.3719859070701L1203.2779017925805 426.17036034818517L1224.0529587129286 426.17036034818517L1224.0529587129286 520.3719859070701ZM1242.0890880729503 524.9757152105974L1181.045968510357 524.9757152105974L1181.045968510357 508.3964622124516L1242.0890880729503 508.3964622124516L1242.0890880729503 524.9757152105974ZM1299.577429312567 520.3719859070701L1279.0063350828814 520.3719859070701L1279.0063350828814 466.2344602997678Q1279.0063350828814 459.09576612657673 1276.8210205400678 453.96756133277415Q1274.6065684700166 448.81021901173403 1270.323351966102 445.89646628798255Q1266.01099793495 442.9535760369936 1259.5133293609838 442.9535760369936L1259.5133293609838 442.9535760369936Q1252.374635187793 442.9535760369936 1244.8280156332767 446.82886715958307Q1237.2813960787603 450.7041582821725 1230.142701905569 458.04681514602623Q1223.0040077323783 465.3894720098799 1216.0692762498497 475.47105643406L1216.0692762498497 475.47105643406L1216.0692762498497 458.6878407452515Q1222.8000450417157 447.99436824908366 1230.7545899775569 440.12723589495465Q1238.7382724406361 432.2601035408257 1247.8583184659783 427.94774950967354Q1256.97836449132 423.63539547852133 1266.652023534175 423.63539547852133L1266.652023534175 423.63539547852133Q1274.402605779354 423.63539547852133 1280.3757988630446 426.25777292989767Q1286.3489919467352 428.880150381274 1290.7778960868372 434.2414553929767Q1295.177662699702 439.60276040467943 1297.3629772425156 447.3533426498583Q1299.577429312567 455.1039248950372 1299.577429312567 465.5934347005425L1299.577429312567 465.5934347005425L1299.577429312567 520.3719859070701ZM1317.6135586725882 524.9757152105974L1260.9702057228596 524.9757152105974L1260.9702057228596 508.3964622124516L1317.6135586725882 508.3964622124516L1317.6135586725882 524.9757152105974ZM1374.6939745308796 520.3719859070701L1354.122880301194 520.3719859070701L1354.122880301194 466.2344602997678Q1354.122880301194 460.9897053970152 1352.9573792116935 456.67735136586305Q1351.8210156494306 452.3941348619484 1349.4026008887167 449.3346945020093Q1346.9841861280033 446.3043916693078 1343.3128576960762 444.6144150895319Q1339.6415292641495 442.9535760369936 1334.8338372699595 442.9535760369936L1334.8338372699595 442.9535760369936Q1327.6951430967683 442.9535760369936 1320.148523542252 446.82886715958307Q1312.5727664604983 450.7041582821725 1305.4632098145448 458.04681514602623Q1298.3245156413536 465.3894720098799 1291.5937468494876 475.47105643406L1291.5937468494876 475.47105643406L1291.5937468494876 458.6878407452515Q1298.3245156413536 447.99436824908366 1306.1916479954825 440.12723589495465Q1314.0587803496114 432.2601035408257 1323.0622762660037 427.94774950967354Q1332.0949097096332 423.63539547852133 1341.943393915913 423.63539547852133L1341.943393915913 423.63539547852133Q1349.5191509976667 423.63539547852133 1355.57975666307 426.25777292989767Q1361.6694998557105 428.880150381274 1365.9818538868626 434.2414553929767Q1370.2650703907775 439.60276040467943 1372.4795224608283 447.3533426498583Q1374.6939745308796 455.1039248950372 1374.6939745308796 465.5934347005425L1374.6939745308796 465.5934347005425L1374.6939745308796 520.3719859070701ZM1394.1869802527767 524.9757152105974L1336.2907136318354 524.9757152105974L1336.2907136318354 508.3964622124516L1394.1869802527767 508.3964622124516L1394.1869802527767 524.9757152105974ZM1459.4259037375723 527.9186054615864L1459.4259037375723 527.9186054615864Q1449.1694941499672 527.9186054615864 1439.4084225253996 524.6552024109848Q1429.6473509008324 521.4209368876207 1421.7802185467035 515.1272310043175Q1413.9130861925742 508.8335251210143 1409.3093568890472 499.48037887777207Q1404.676490058282 490.15637016176737 1404.676490058282 477.97688377648626L1404.676490058282 477.97688377648626Q1404.676490058282 464.9815466285547 1409.3967694707594 454.8999622043746Q1414.1170488832367 444.84751530743205 1422.100731346316 437.91278382490356Q1430.0552762821571 430.97805234237507 1439.9328980156752 427.3067239104482Q1449.781382221955 423.63539547852133 1460.2708920274604 423.63539547852133L1460.2708920274604 423.63539547852133Q1472.8583037940666 423.63539547852133 1482.5028253096839 427.53982412834836Q1492.1764843525389 431.4151152509378 1497.7126145276666 438.43725931517884Q1503.277882230032 445.4594033794199 1503.277882230032 454.8999622043746L1503.277882230032 454.8999622043746Q1503.277882230032 464.54448371999194 1497.508651837004 471.07128982119525Q1491.739421443976 477.5689583951611 1482.5028253096839 480.8032239185252Q1473.2953667026295 484.0666269691268 1463.0098195877868 484.0666269691268L1463.0098195877868 484.0666269691268Q1450.2184451305175 484.0666269691268 1440.0203105973874 481.03632413642526Q1429.851313591495 477.97688377648626 1420.2067920758773 473.57711716362155L1420.2067920758773 473.57711716362155L1420.0028293852151 460.9897053970152Q1431.1042272627078 465.82653491844263 1440.4573735059503 467.69133666164356Q1449.781382221955 469.585275932082 1458.610052974922 469.585275932082L1458.610052974922 469.585275932082Q1465.3116842395502 469.585275932082 1470.672989251253 467.9244368795437Q1476.0051567357182 466.2344602997678 1479.3559723680323 462.8836446674536Q1482.7359255275842 459.53282903513946 1482.7359255275842 454.8999622043746L1482.7359255275842 454.8999622043746Q1482.7359255275842 448.19833093974626 1476.8501450256058 444.0899395992567Q1470.9643645236283 440.0106857860046 1461.7569059165735 440.0106857860046L1461.7569059165735 440.0106857860046Q1454.8221744340449 440.0106857860046 1448.2079557511292 442.63306323738095Q1441.5937370682132 445.2554406887573 1436.261569583748 450.09227021018467Q1430.9002645720452 454.8999622043746 1427.665999048681 461.7181435779531Q1424.4025959980795 468.53632495153147 1424.4025959980795 477.3649957044984L1424.4025959980795 477.3649957044984Q1424.4025959980795 487.6214052921036 1429.4433882101698 495.08061226490736Q1434.4841804222597 502.53981923771113 1442.5552754670512 506.41511036030056Q1450.6263705118427 510.29040148289005 1460.0669293367978 510.29040148289005L1460.0669293367978 510.29040148289005Q1471.809352813516 510.29040148289005 1480.7254361481955 506.41511036030056Q1489.641519482875 502.53981923771113 1496.5762509654037 496.65403873573314L1496.5762509654037 496.65403873573314L1505.3757841911329 510.29040148289005Q1499.5191412163927 515.3311936949801 1492.700959842814 519.3230349265195Q1485.8827784692357 523.2857386308216 1477.578583206544 525.6167408098228Q1469.3035254710899 527.9186054615864 1459.4259037375723 527.9186054615864ZM1555.9293939482209 475.47105643406L1555.9293939482209 475.47105643406L1555.9293939482209 459.09576612657673Q1563.7091137206376 448.81021901173403 1572.5086469463668 440.7391239669425Q1581.3373176993337 432.66802892215094 1590.7778765242883 428.15171220033614Q1600.218435349243 423.63539547852133 1609.6589941741981 423.63539547852133L1609.6589941741981 423.63539547852133L1618.4585273999273 423.63539547852133L1618.4585273999273 465.82653491844263L1600.4223980399056 465.82653491844263L1600.4223980399056 444.00252701754414Q1593.92472946594 444.00252701754414 1586.5820726020866 447.76126803118353Q1579.2394157382328 451.5491465720604 1571.459695965816 458.57129063630146Q1563.7091137206376 465.5934347005425 1555.9293939482209 475.47105643406ZM1585.096058712973 524.9757152105974L1519.6531725375153 524.9757152105974L1519.6531725375153 508.3964622124516L1585.096058712973 508.3964622124516L1585.096058712973 524.9757152105974ZM1562.660162740087 520.3719859070701L1541.8851058197388 520.3719859070701L1541.8851058197388 426.17036034818517L1562.660162740087 426.17036034818517L1562.660162740087 520.3719859070701ZM1561.4072490688736 442.749613346331L1519.6531725375153 442.749613346331L1519.6531725375153 426.17036034818517L1561.4072490688736 426.17036034818517L1561.4072490688736 442.749613346331ZM1688.0972174975873 528.122568152249L1688.0972174975873 528.122568152249Q1677.6077076920824 528.122568152249 1668.079736285415 524.4512397203222Q1658.52262735151 520.7799112883953 1650.8594576880437 513.9617299148169Q1643.2254255518146 507.1435485412385 1638.796521411713 497.382476916671Q1634.3967547988482 487.6214052921036 1634.3967547988482 475.8789818153852L1634.3967547988482 475.8789818153852Q1634.3967547988482 464.54448371999194 1638.2720459214374 455.01651231332465Q1642.1764745712644 445.4594033794199 1649.0820685265553 438.43725931517884Q1656.016800009084 431.4151152509378 1665.0202959254757 427.53982412834836Q1674.0529293691052 423.63539547852133 1684.1345137932858 423.63539547852133L1684.1345137932858 423.63539547852133Q1694.1869606902283 423.63539547852133 1701.325654863419 426.6948358384604Q1708.4643490366102 429.7251386711619 1713.7965165210753 435.2904063735272Q1719.1578215327781 440.8556740758925 1722.9457000736552 448.81021901173403L1722.9457000736552 448.81021901173403L1716.4188939724518 447.1493799591957L1716.4188939724518 426.17036034818517L1731.3373079180592 426.17036034818517L1731.3373079180592 460.7857427063526L1722.5086371650923 461.3976307783404Q1719.1578215327781 454.695999513712 1714.4375421203008 450.09227021018467Q1709.7172627078235 445.4594033794199 1703.627519515183 443.1575387276562Q1697.5377763225424 440.8556740758925 1689.7871940773634 440.8556740758925L1689.7871940773634 440.8556740758925Q1682.4445372135096 440.8556740758925 1676.2673814391565 443.27408883660627Q1670.061088137566 445.6633660700825 1665.5447714157513 450.2962329008473Q1661.0575922211738 454.8999622043746 1658.4352147697978 461.3976307783404Q1655.8128373184213 467.9244368795437 1655.8128373184213 475.67501912472255L1655.8128373184213 475.67501912472255Q1655.8128373184213 486.1645289302279 1660.6205293126113 493.91511117540676Q1665.4573588340386 501.6948309478232 1673.120528497505 505.9780474517379Q1680.754560633734 510.29040148289005 1689.3792686960383 510.49436417355264L1689.3792686960383 510.49436417355264Q1700.4806665735314 510.69832686421523 1708.5517616183229 506.41511036030056Q1716.651994190352 502.1027563291484 1723.557588145643 495.60508775518264L1723.557588145643 495.60508775518264L1732.794184279935 509.0374878116769Q1724.198613744868 516.9920327475184 1713.1846284490875 522.5573004498838Q1702.170643153307 528.122568152249 1688.0972174975873 528.122568152249ZM1803.7149255760455 527.9186054615864L1803.7149255760455 527.9186054615864Q1793.4293784612032 527.9186054615864 1783.6683068366356 524.6552024109848Q1773.9072352120684 521.4209368876207 1766.0401028579395 515.1272310043175Q1758.1729705038101 508.8335251210143 1753.5692412002827 499.48037887777207Q1748.9363743695185 490.15637016176737 1748.9363743695185 477.97688377648626L1748.9363743695185 477.97688377648626Q1748.9363743695185 464.9815466285547 1753.6566537819954 454.8999622043746Q1758.3769331944727 444.84751530743205 1766.360615657552 437.91278382490356Q1774.3442981206308 430.97805234237507 1784.1927823269111 427.3067239104482Q1794.041266533191 423.63539547852133 1804.5307763386963 423.63539547852133L1804.5307763386963 423.63539547852133Q1817.1181881053026 423.63539547852133 1826.7918471481576 427.53982412834836Q1836.4363686637748 431.4151152509378 1842.0016363661402 438.43725931517884Q1847.537766541268 445.4594033794199 1847.537766541268 454.8999622043746L1847.537766541268 454.8999622043746Q1847.537766541268 464.54448371999194 1841.76853614824 471.07128982119525Q1835.999305755212 477.5689583951611 1826.7918471481576 480.8032239185252Q1817.555251013865 484.0666269691268 1807.2697038990227 484.0666269691268L1807.2697038990227 484.0666269691268Q1794.4783294417539 484.0666269691268 1784.309332435861 481.03632413642526Q1774.111197902731 477.97688377648626 1764.4666763871132 473.57711716362155L1764.4666763871132 473.57711716362155L1764.2627136964506 460.9897053970152Q1775.3932491011815 465.82653491844263 1784.7172578171862 467.69133666164356Q1794.041266533191 469.585275932082 1802.869937286158 469.585275932082L1802.869937286158 469.585275932082Q1809.5715685507862 469.585275932082 1814.932873562489 467.9244368795437Q1820.2650410469541 466.2344602997678 1823.644994206506 462.8836446674536Q1826.9958098388202 459.53282903513946 1826.9958098388202 454.8999622043746L1826.9958098388202 454.8999622043746Q1826.9958098388202 448.19833093974626 1821.1100293368422 444.0899395992567Q1815.2533863621015 440.0106857860046 1806.0167902278095 440.0106857860046L1806.0167902278095 440.0106857860046Q1799.0820587452808 440.0106857860046 1792.4678400623652 442.63306323738095Q1785.8827589066868 445.2554406887573 1780.521453894984 450.09227021018467Q1775.1601488832812 454.8999622043746 1771.9258833599174 461.7181435779531Q1768.6624803093155 468.53632495153147 1768.6624803093155 477.3649957044984L1768.6624803093155 477.3649957044984Q1768.6624803093155 487.6214052921036 1773.7032725214058 495.08061226490736Q1778.7440647334956 502.53981923771113 1786.8151597782871 506.41511036030056Q1794.8862548230786 510.29040148289005 1804.3268136480337 510.29040148289005L1804.3268136480337 510.29040148289005Q1816.069237124752 510.29040148289005 1824.9853204594315 506.41511036030056Q1833.901403794111 502.53981923771113 1840.8361352766392 496.65403873573314L1840.8361352766392 496.65403873573314L1849.6356685023688 510.29040148289005Q1843.7790255276282 515.3311936949801 1836.96084415405 519.3230349265195Q1830.1426627804713 523.2857386308216 1821.83846751778 525.6167408098228Q1813.5634097823258 527.9186054615864 1803.7149255760455 527.9186054615864Z " fill="#f7f7f9" transform="matrix(0.47306617274475476,0,0,0.47306617274475476,0,85.64305008137211)"/></g></svg>